# xmcd
#
# Track frame offsets: 
#        150
#        14644
#        35426
#        52955
#        72397
#        89664
#        108515
#        126771
#        145491
#        158988
#
# Disc length: 2406 seconds
#
# Revision: 0
# Processed by: cddbd v1.5.2PL0 Copyright (c) Steve Scherf et al.
# Submitted via: ExactAudioCopy v1.0b3
#
DISCID=9109640a
DTITLE=Linzee - Love Blood
DYEAR=2012
DGENRE=Rock
TTITLE0=Dose of You
TTITLE1=All Night Long
TTITLE2=Blackbirds of a Feather
TTITLE3=Blame It on June
TTITLE4=Girl Out of Town
TTITLE5=Goodbye
TTITLE6=Internal Scream
TTITLE7=Jonny Pick Me
TTITLE8=Love Blood
TTITLE9=I'm Gonna Rise
EXTD=
EXTT0=
EXTT1=
EXTT2=
EXTT3=
EXTT4=
EXTT5=
EXTT6=
EXTT7=
EXTT8=
EXTT9=
PLAYORDER=
